<svg width="24" height="24" viewBox="0 0 24 24" fill="none" xmlns="http://www.w3.org/2000/svg">
  <path d="M12 2l2.4 7.2h7.6l-6 4.8 2.4 7.2-6-4.8-6 4.8 2.4-7.2-6-4.8h7.6z" fill="currentColor"/>
  <path d="M6 8c.5 1.8 1.3 3.4 2.5 4.6C9.6 13.7 11.2 14.5 13 15c-1.8.5-3.4 1.3-4.6 2.5C7.3 18.4 6.5 20 6 22c-.5-1.8-1.3-3.4-2.5-4.6C2.4 16.3.8 15.5-1 15c1.8-.5 3.4-1.3 4.6-2.5C4.7 11.6 5.5 10 6 8z" fill="currentColor"/>
  <path d="M18 8c.5 1.8 1.3 3.4 2.5 4.6C21.6 13.7 23.2 14.5 25 15c-1.8.5-3.4 1.3-4.6 2.5C19.3 18.4 18.5 20 18 22c-.5-1.8-1.3-3.4-2.5-4.6C14.4 16.3 12.8 15.5 11 15c1.8-.5 3.4-1.3 4.6-2.5C16.7 11.6 17.5 10 18 8z" fill="currentColor"/>
</svg>

